<svg width="64" height="62" fill="none" xmlns="http://www.w3.org/2000/svg"><path d="M29.56 6.879H13.708m20.732 0h15.853M37.488 60.538h19.634a4.878 4.878 0 0 0 4.879-4.878V11.757a4.878 4.878 0 0 0-4.879-4.878h-1.504m-47.48.001h-1.26A4.878 4.878 0 0 0 2 11.756V55.66a4.878 4.878 0 0 0 4.878 4.878h19.634M2.732 17.61h59.269" stroke="#ED6D23" stroke-width="2.5" stroke-miterlimit="10" stroke-linecap="round" stroke-linejoin="round"/><path d="M11.025 11.756a2.439 2.439 0 0 1-2.44-2.439V4.44a2.439 2.439 0 1 1 4.879 0v4.878a2.439 2.439 0 0 1-2.439 2.44Zm20.975 0a2.439 2.439 0 0 1-2.44-2.439V4.44a2.439 2.439 0 0 1 4.879 0v4.878a2.439 2.439 0 0 1-2.44 2.44Zm20.976 0a2.439 2.439 0 0 0 2.44-2.439V4.44a2.439 2.439 0 0 0-4.879 0v4.878a2.439 2.439 0 0 0 2.44 2.44ZM36.878 35.172h-9.756v-9.756h9.756v9.756Zm17.56 0h-9.756v-9.756h9.757v9.756Zm-35.121 17.56H9.56v-9.755h9.756v9.756ZM9.56 31.757l3.415 3.415 6.342-6.341m7.82 20.487 3.415 3.415 6.34-6.341m7.79 2.926 3.414 3.415 6.342-6.341" stroke="#ED6D23" stroke-width="2.5" stroke-miterlimit="10" stroke-linecap="round" stroke-linejoin="round"/></svg>