<svg width="60" height="60" fill="none" xmlns="http://www.w3.org/2000/svg"><path d="M53.086.343A1.2 1.2 0 0 0 52.249 0H7.718a1.16 1.16 0 0 0-1.155 1.172v57.656A1.16 1.16 0 0 0 7.718 60h44.531a1.188 1.188 0 0 0 1.188-1.172v-15c0-.646-.526-1.172-1.171-1.172-.646 0-1.172.526-1.172 1.172v13.828H8.906V2.344h42.188V33.28a1.155 1.155 0 0 0 1.167 1.172c.646 0 1.176-.526 1.176-1.172V1.171c0-.307-.133-.61-.351-.828Z" fill="#002F82"/><path d="M52.25 39.727a1.172 1.172 0 1 0 0-2.344 1.172 1.172 0 0 0 0 2.344ZM44.046 5.86c0-.648-.525-1.173-1.172-1.173H17.093c-.647 0-1.172.525-1.172 1.172a3.513 3.513 0 0 1-3.507 3.516c-.648 0-1.164.525-1.164 1.172v38.906c0 .647.516 1.172 1.164 1.172a3.516 3.516 0 0 1 3.511 3.516c0 .647.52 1.172 1.168 1.172h25.781c.647 0 1.172-.525 1.172-1.172a3.527 3.527 0 0 1 3.524-3.516 1.18 1.18 0 0 0 1.18-1.172V10.547a1.18 1.18 0 0 0-1.18-1.172 3.527 3.527 0 0 1-3.524-3.516Zm2.36 42.539a5.829 5.829 0 0 0-4.586 4.57H18.147c-.467-2.293-2.327-4.103-4.553-4.57V11.601c2.226-.467 4.086-2.277 4.553-4.57H41.82a5.829 5.829 0 0 0 4.586 4.57v36.798Z" fill="#002F82"/><path d="M24.125 33.516h-5.86c-.645 0-1.171.526-1.171 1.172 0 .645.526 1.171 1.172 1.171h5.859c.646 0 1.172-.526 1.172-1.172 0-.645-.526-1.171-1.172-1.171Zm4.688 2.344a1.172 1.172 0 1 0 0-2.344 1.172 1.172 0 0 0 0 2.343Zm-5.862 10.195h-4.687a1.172 1.172 0 0 0 0 2.343h4.687a1.172 1.172 0 0 0 0-2.343Zm18.75-17.227H18.264a1.172 1.172 0 0 0 0 2.344H41.7a1.172 1.172 0 0 0 0-2.344Zm0-4.687H18.264a1.172 1.172 0 0 0 0 2.343H41.7a1.172 1.172 0 0 0 0-2.343ZM24.123 14.063h11.719a1.172 1.172 0 0 0 0-2.344H24.123a1.172 1.172 0 0 0 0 2.344Zm12.89 24.843a5.866 5.866 0 0 0-5.859 5.86 5.867 5.867 0 0 0 5.86 5.859 5.867 5.867 0 0 0 5.859-5.86 5.866 5.866 0 0 0-5.86-5.859Zm0 9.375a3.52 3.52 0 0 1-3.515-3.515 3.52 3.52 0 0 1 3.516-3.516 3.52 3.52 0 0 1 3.515 3.516 3.52 3.52 0 0 1-3.515 3.515Z" fill="#002F82"/><path d="M37.016 45.938a1.172 1.172 0 1 0 0-2.344 1.172 1.172 0 0 0 0 2.343Z" fill="#002F82"/></svg>