<svg width="283" height="285" fill="none" xmlns="http://www.w3.org/2000/svg"><mask id="Mask group__a" style="mask-type:alpha" maskUnits="userSpaceOnUse" x="0" y="0" width="283" height="285"><path fill="#D9D9D9" d="M0 0h283v285H0z"/></mask><g style="mix-blend-mode:multiply" fill="#000" fill-opacity=".05" mask="url(#Mask group__a)"><path d="M379.744 30.596c-37.193 1.274-72.899 23.45-91.83 54.12-1.456 2.276-2.973 3.004-4.398 3.004-1.426 0-2.943-.728-4.399-3.004-18.93-30.67-54.637-52.846-91.83-54.12-3.185 0-4.793 1-3.124 4.641 19.688 44.777 49.358 106.331 99.353 106.634 49.995-.303 79.664-61.857 99.353-106.634 1.698-3.64.06-4.641-3.125-4.641Z" style="mix-blend-mode:soft-light"/><path d="M301.566 30.595c0 9.708-8.1 17.596-18.081 17.596s-18.081-7.888-18.081-17.596c0-9.707 8.1-17.595 18.081-17.595s18.081 7.888 18.081 17.595ZM28.595 303.566c-9.707 0-17.595-8.1-17.595-18.081s7.888-18.081 17.595-18.081c9.708 0 17.596 8.1 17.596 18.081s-7.888 18.081-17.596 18.081Zm61.888-185.54c-6.857-6.856-6.705-18.172.333-25.21 7.069-7.068 18.354-7.22 25.21-.334 6.856 6.856 6.705 18.172-.334 25.21-7.068 7.069-18.353 7.22-25.21.334Z" style="mix-blend-mode:soft-light"/><path d="M28.595 189.256c1.274 37.193 23.45 72.9 54.12 91.83 2.276 1.456 3.004 2.973 3.004 4.398 0 1.426-.728 2.943-3.003 4.399-30.67 18.961-52.847 54.637-54.121 91.83 0 3.185 1 4.793 4.641 3.124 44.777-19.688 106.331-49.357 106.634-99.353-.303-49.995-61.857-79.664-106.634-99.352-3.64-1.699-4.641-.061-4.641 3.094M171.328 37.21c-25.392 27.211-34.948 68.135-26.666 103.205.576 2.639 0 4.247-.971 5.248-.971.971-2.609 1.578-5.248.971-35.1-8.282-76.024 1.274-103.206 26.666-2.245 2.245-2.67 4.095 1.092 5.491 45.566 17.747 110.092 40.287 145.647 5.157 35.13-35.585 12.59-100.081-5.157-145.647-1.365-3.762-3.246-3.337-5.491-1.092Z" style="mix-blend-mode:soft-light"/></g></svg>